<?xml version="1.0" encoding="utf-8"?>
<!-- Generator: Adobe Illustrator 17.0.0, SVG Export Plug-In . SVG Version: 6.00 Build 0)  -->
<!DOCTYPE svg PUBLIC "-//W3C//DTD SVG 1.1//EN" "http://www.w3.org/Graphics/SVG/1.1/DTD/svg11.dtd">
<svg version="1.1" id="Capa_1" xmlns="http://www.w3.org/2000/svg" xmlns:xlink="http://www.w3.org/1999/xlink" x="0px" y="0px"
	 width="16px" height="16px" viewBox="0 0 16 16" enable-background="new 0 0 16 16" xml:space="preserve">
<path d="M12.25,6.5H12v-3c0-1.654-1.346-3-3-3H7c-1.654,0-3,1.346-3,3v3H3.75C3.338,6.5,3,6.838,3,7.25v7.5
	c0,0.412,0.338,0.75,0.75,0.75h8.5c0.412,0,0.75-0.338,0.75-0.75v-7.5C13,6.838,12.662,6.5,12.25,6.5z M6,3.5c0-0.551,0.449-1,1-1h2
	c0.551,0,1,0.449,1,1v3H6V3.5z"/>
</svg>
